<svg width="73" height="73" viewBox="0 0 73 73" fill="none" xmlns="http://www.w3.org/2000/svg">
<path d="M54.7502 6.08337H18.2502C15.0234 6.08337 11.9287 7.36522 9.64703 9.64691C7.36534 11.9286 6.0835 15.0232 6.0835 18.25V42.5834C6.0835 45.8102 7.36534 48.9048 9.64703 51.1865C11.9287 53.4682 15.0234 54.75 18.2502 54.75V63.875C18.2466 64.4792 18.4231 65.0707 18.7571 65.5742C19.0911 66.0776 19.5674 66.4702 20.1254 66.7019C20.6834 66.9336 21.2977 66.9938 21.8901 66.875C22.4824 66.7562 23.026 66.4636 23.4514 66.0346L34.7056 54.75H54.7502C57.977 54.75 61.0716 53.4682 63.3533 51.1865C65.635 48.9048 66.9168 45.8102 66.9168 42.5834V18.25C66.9168 15.0232 65.635 11.9286 63.3533 9.64691C61.0716 7.36522 57.977 6.08337 54.7502 6.08337Z" fill="#5C7BC5"/>
<path d="M22.8125 34.9792C25.3323 34.9792 27.375 32.9365 27.375 30.4167C27.375 27.8969 25.3323 25.8542 22.8125 25.8542C20.2927 25.8542 18.25 27.8969 18.25 30.4167C18.25 32.9365 20.2927 34.9792 22.8125 34.9792Z" fill="#EDEBEA"/>
<path d="M36.5 34.9792C39.0198 34.9792 41.0625 32.9365 41.0625 30.4167C41.0625 27.8969 39.0198 25.8542 36.5 25.8542C33.9802 25.8542 31.9375 27.8969 31.9375 30.4167C31.9375 32.9365 33.9802 34.9792 36.5 34.9792Z" fill="#EDEBEA"/>
<path d="M50.1875 34.9792C52.7073 34.9792 54.75 32.9365 54.75 30.4167C54.75 27.8969 52.7073 25.8542 50.1875 25.8542C47.6677 25.8542 45.625 27.8969 45.625 30.4167C45.625 32.9365 47.6677 34.9792 50.1875 34.9792Z" fill="#EDEBEA"/>
</svg>
